<svg width="15" height="14" viewBox="0 0 15 14" fill="none" xmlns="http://www.w3.org/2000/svg">
<path d="M13.0156 0H2.01562C1.17188 0 0.515625 0.6875 0.515625 1.5V12.5C0.515625 13.3438 1.17188 14 2.01562 14H13.0156C13.8281 14 14.5156 13.3438 14.5156 12.5V1.5C14.5156 0.6875 13.8281 0 13.0156 0ZM12.8281 12.5H2.20312C2.07812 12.5 2.01562 12.4375 2.01562 12.3125V1.6875C2.01562 1.59375 2.07812 1.5 2.20312 1.5H12.8281C12.9219 1.5 13.0156 1.59375 13.0156 1.6875V12.3125C13.0156 12.4375 12.9219 12.5 12.8281 12.5ZM6.01562 9.75C6.01562 9.0625 5.45312 8.5 4.76562 8.5C4.04688 8.5 3.51562 9.0625 3.51562 9.75C3.51562 10.4688 4.04688 11 4.76562 11C5.45312 11 6.01562 10.4688 6.01562 9.75ZM8.92188 10.7188C8.76562 7.96875 6.57812 5.75 3.79688 5.59375C3.64062 5.59375 3.51562 5.71875 3.51562 5.875V6.75C3.51562 6.875 3.60938 7 3.76562 7.03125C5.76562 7.15625 7.35938 8.75 7.48438 10.75C7.51562 10.9062 7.64062 11 7.76562 11H8.64062C8.79688 11 8.92188 10.875 8.92188 10.7188ZM11.4844 10.7188C11.3594 6.53125 7.98438 3.15625 3.79688 3.03125C3.64062 3 3.51562 3.125 3.51562 3.3125V4.15625C3.51562 4.3125 3.60938 4.4375 3.76562 4.4375C7.20312 4.59375 9.92188 7.3125 10.0781 10.75C10.0781 10.9062 10.2031 11 10.3594 11H11.2031C11.3906 11 11.5156 10.875 11.4844 10.7188Z" fill="white"/>
</svg>
