<svg width="15" height="16" viewBox="0 0 15 16" fill="none" xmlns="http://www.w3.org/2000/svg">
<path d="M4.51562 4.75C4.51562 4.90625 4.60938 5 4.76562 5H11.2656C11.3906 5 11.5156 4.90625 11.5156 4.75V3.75C11.5156 3.625 11.3906 3.5 11.2656 3.5H4.76562C4.60938 3.5 4.51562 3.625 4.51562 3.75V4.75ZM4.76562 7.5H11.2656C11.3906 7.5 11.5156 7.40625 11.5156 7.25V6.25C11.5156 6.125 11.3906 6 11.2656 6H4.76562C4.60938 6 4.51562 6.125 4.51562 6.25V7.25C4.51562 7.40625 4.60938 7.5 4.76562 7.5ZM14.1094 12.5C14.3281 12.4688 14.5156 12.25 14.5156 12V0.5C14.5156 0.25 14.2656 0 14.0156 0H3.01562C1.60938 0 0.515625 1.125 0.515625 2.5V13.5C0.515625 14.9062 1.60938 16 3.01562 16H14.0156C14.2656 16 14.5156 15.7812 14.5156 15.5V15C14.5156 14.7812 14.3281 14.5625 14.1094 14.5312C13.9531 14.125 13.9531 12.9062 14.1094 12.5ZM12.8281 12.5C12.7344 13.0625 12.7344 13.9688 12.8281 14.5H3.01562C2.45312 14.5 2.01562 14.0625 2.01562 13.5C2.01562 12.9688 2.45312 12.5 3.01562 12.5H12.8281ZM13.0156 1.5V11H3.01562C2.64062 11 2.29688 11.0938 2.01562 11.2188V2.5C2.01562 1.96875 2.45312 1.5 3.01562 1.5H13.0156Z" fill="white"/>
</svg>
