<svg width="16" height="16" viewBox="0 0 16 16" fill="none" xmlns="http://www.w3.org/2000/svg">
<path d="M7.57812 7.52344L0.859375 9.42969C0.390625 9.55469 0.359375 10.2109 0.796875 10.4297L2.92188 11.4609L0.140625 14.2422C-0.046875 14.4297 -0.046875 14.7422 0.140625 14.9297L0.828125 15.6172C1.01562 15.8047 1.32812 15.8047 1.51562 15.6172L4.29688 12.8359L5.32812 14.9609C5.54688 15.3984 6.20312 15.3672 6.32812 14.8984L8.23438 8.17969C8.35938 7.77344 7.98438 7.42969 7.57812 7.52344ZM8.42188 11.1797L7.98438 12.7422C10.4844 12.6172 12.5156 10.5547 12.5156 7.99219C12.5156 5.36719 10.3906 3.24219 7.76562 3.24219C5.20312 3.24219 3.14062 5.27344 3.01562 7.77344L4.57812 7.33594C4.89062 5.86719 6.20312 4.74219 7.76562 4.74219C9.54688 4.74219 11.0156 6.21094 11.0156 7.99219C11.0156 9.55469 9.89062 10.8672 8.42188 11.1797ZM7.76562 0.242188C3.48438 0.242188 0.015625 3.74219 0.015625 7.99219C0.015625 8.24219 0.015625 8.46094 0.046875 8.67969C0.140625 8.61719 0.265625 8.55469 0.390625 8.52344L1.51562 8.21094C1.51562 8.14844 1.51562 8.08594 1.51562 7.99219C1.51562 4.55469 4.29688 1.74219 7.76562 1.74219C11.2031 1.74219 14.0156 4.55469 14.0156 7.99219C14.0156 11.4609 11.2031 14.2422 7.76562 14.2422C7.67188 14.2422 7.60938 14.2422 7.54688 14.2422L7.23438 15.3672C7.20312 15.4922 7.14062 15.6172 7.07812 15.7109C7.29688 15.7422 7.51562 15.7422 7.76562 15.7422C12.0156 15.7422 15.5156 12.2734 15.5156 7.99219C15.5156 3.74219 12.0156 0.242188 7.76562 0.242188Z" fill="white"/>
</svg>
