<svg width="16" height="16" viewBox="0 0 16 16" fill="none" xmlns="http://www.w3.org/2000/svg">
<circle cx="8.07812" cy="8" r="6.85841" stroke="white" stroke-width="1.40819"/>
<path d="M10.6205 9.48355C10.6205 9.98029 10.4487 10.4004 10.1053 10.7438C9.76802 11.0811 9.31114 11.2988 8.73467 11.3969V12.4272H7.63079V11.4337C7.23217 11.4031 6.85807 11.3264 6.50851 11.2038C6.16508 11.0811 5.86765 10.9217 5.61621 10.7254L6.07616 9.70432C6.68329 10.1275 7.33642 10.3391 8.03554 10.3391C8.40964 10.3391 8.6948 10.2716 8.89105 10.1367C9.09343 9.99562 9.19462 9.79938 9.19462 9.54794C9.19462 9.39462 9.13942 9.2689 9.02903 9.17078C8.91865 9.07266 8.7776 8.996 8.60588 8.94081C8.4403 8.87948 8.20113 8.80896 7.88836 8.72923C7.43454 8.61884 7.06045 8.50232 6.76608 8.37967C6.47172 8.25702 6.21721 8.06997 6.00257 7.81853C5.79406 7.56096 5.6898 7.2206 5.6898 6.79744C5.6898 6.30683 5.86458 5.88674 6.21414 5.53718C6.56984 5.18149 7.03285 4.95458 7.60319 4.85646V3.82617H8.70707V4.82886C9.06276 4.87792 9.39699 4.96378 9.70976 5.08643C10.0225 5.20295 10.277 5.35014 10.4733 5.52798L10.0133 6.54907C9.40619 6.12592 8.80519 5.91434 8.21033 5.91434C7.87916 5.91434 7.61239 5.98487 7.41001 6.12592C7.21377 6.26697 7.11565 6.46321 7.11565 6.71465C7.11565 6.88637 7.17391 7.02742 7.29043 7.13781C7.40695 7.24819 7.55413 7.33405 7.73198 7.39538C7.90982 7.4567 8.1582 7.52723 8.4771 7.60695C8.91865 7.71734 9.28354 7.8308 9.57177 7.94732C9.86001 8.06384 10.1053 8.24475 10.3077 8.49006C10.5162 8.73536 10.6205 9.06653 10.6205 9.48355Z" fill="white"/>
</svg>
