<svg width="21" height="12" viewBox="0 0 21 12" fill="none" xmlns="http://www.w3.org/2000/svg">
<path d="M19.4531 2.61719L11.3906 0.148438C10.7969 -0.0390625 10.2031 -0.0390625 9.60938 0.148438L1.54688 2.61719C0.921875 2.83594 0.515625 3.36719 0.515625 4.02344C0.515625 4.64844 0.921875 5.17969 1.54688 5.39844L2.23438 5.61719C2.17188 5.77344 2.10938 5.92969 2.07812 6.11719C1.73438 6.27344 1.51562 6.61719 1.51562 7.02344C1.51562 7.33594 1.67188 7.61719 1.92188 7.80469L1.14062 11.3984C1.07812 11.7109 1.29688 11.9922 1.60938 11.9922H3.39062C3.70312 11.9922 3.92188 11.7109 3.85938 11.3984L3.07812 7.80469C3.32812 7.61719 3.51562 7.33594 3.51562 7.02344C3.51562 6.67969 3.32812 6.39844 3.07812 6.21094C3.10938 6.11719 3.17188 5.99219 3.23438 5.89844L4.95312 6.42969L4.51562 9.99219C4.51562 11.1172 7.17188 11.9922 10.5156 11.9922C13.8281 11.9922 16.5156 11.1172 16.5156 9.99219L16.0469 6.42969L19.4531 5.39844C20.0781 5.17969 20.5156 4.64844 20.5156 4.02344C20.5156 3.36719 20.0781 2.83594 19.4531 2.61719ZM14.9531 9.71094C13.0781 10.7734 7.89062 10.7734 6.04688 9.71094L6.39062 6.89844L9.60938 7.86719C9.95312 7.99219 10.6094 8.11719 11.3906 7.86719L14.6094 6.89844L14.9531 9.71094ZM10.9531 6.42969C10.6719 6.52344 10.3281 6.52344 10.0469 6.42969L5.32812 4.99219L10.5781 3.99219C10.8594 3.96094 11.0469 3.67969 10.9844 3.42969C10.9531 3.14844 10.6719 2.96094 10.4219 3.02344L4.04688 4.21094C3.82812 4.24219 3.64062 4.33594 3.45312 4.39844L2.17188 3.99219L10.0469 1.58594C10.3281 1.49219 10.6719 1.49219 10.9531 1.58594L18.8281 4.02344L10.9531 6.42969Z" fill="white"/>
</svg>
