<svg xmlns="http://www.w3.org/2000/svg" id="Layer_1" data-name="Layer 1" viewBox="0 0 44.67 54.97"><defs><style>.clsrqq-1{fill:none;}.clsrqq-2{fill:#22be96;}.clsrqq-3{fill:#fff;}</style></defs><path class="clsrqq-1" d="M33.2,44.12l-.23.37-.17.27-.08.13a.42.42,0,0,1-.09.14l0,0a3.43,3.43,0,0,0,2.71,5.49h0A3.39,3.39,0,0,0,38,49.22l0-.08.15-.19.1-.21.06-.09h0l.06-.1,0,0-5-5C33.4,43.78,33.29,44,33.2,44.12Z"></path><path class="clsrqq-1" d="M34.52,41.62l0,.09,5,5c.41-.74.81-1.49,1.16-2.25A25.72,25.72,0,0,0,42,41.09L36.3,35.36A19,19,0,0,1,34.52,41.62Z"></path><path class="clsrqq-1" d="M30,29.09l-5.35-5.35a11.43,11.43,0,0,0-1.84,1.44.81.81,0,0,1-.42.22.69.69,0,0,1-.32,0,.61.61,0,0,1-.28-.16,12,12,0,0,0-7.14-3.29L26,33.19a5.27,5.27,0,0,1,1.8-3A5.21,5.21,0,0,1,30,29.09Z"></path><path class="clsrqq-1" d="M7.47,50.89c.33.45.61.81.82,1.07l.27.35.07.08a3.33,3.33,0,0,0,2.28,1.17,2.8,2.8,0,0,0,.58,0L5.17,47.23A36.3,36.3,0,0,0,7.47,50.89Z"></path><path class="clsrqq-1" d="M1.4,33.86V34a24.58,24.58,0,0,0,1.44,8.11l10.6,10.61a3.52,3.52,0,0,0,.3-4.84l-.07-.11c-.11-.13-.42-.53-.7-.92a27.6,27.6,0,0,1-2-3.15c-.24-.41-.46-.83-.67-1.26L1.42,33.49C1.42,33.61,1.4,33.73,1.4,33.86Z"></path><path class="clsrqq-1" d="M6.15,24.38l5.19,5.2A5.27,5.27,0,0,1,18.83,34a3.57,3.57,0,0,0,.38,1.53,3.4,3.4,0,0,0,3,2.28l.16,0a3.46,3.46,0,0,0,3.24-2.15L11.92,22A12.09,12.09,0,0,0,6.15,24.38Z"></path><path class="clsrqq-1" d="M26.54,22.77l6.58,6.58a5.31,5.31,0,0,1,2.94,2.94l6.58,6.58a25.43,25.43,0,0,0,.63-5.13,12.37,12.37,0,0,0-.4-2.81L34.2,22.26a12.34,12.34,0,0,0-3.06-.4A12.13,12.13,0,0,0,26.54,22.77Z"></path><path class="clsrqq-1" d="M1.79,31l7,7a20.21,20.21,0,0,1-.55-4,5.29,5.29,0,0,1,1.47-3.3l-5-5A12,12,0,0,0,1.79,31Z"></path><path class="clsrqq-2" d="M5,47c0,.08.1.15.14.23l6.32,6.32a3.23,3.23,0,0,0,1.86-.78l.09-.09L2.84,42.07A34.16,34.16,0,0,0,5,47Z"></path><path class="clsrqq-2" d="M1.42,33.49l8.92,8.91A21.15,21.15,0,0,1,8.77,38l-7-7A12.47,12.47,0,0,0,1.42,33.49Z"></path><path class="clsrqq-2" d="M4.67,25.73l5,5c.13-.14.25-.28.39-.41a5.64,5.64,0,0,1,1.26-.76l-5.19-5.2A11.19,11.19,0,0,0,4.67,25.73Z"></path><path class="clsrqq-2" d="M13.52,21.86a11.92,11.92,0,0,0-1.6.12L25.58,35.65a3.33,3.33,0,0,0,.25-1.26v-.56c0-.22.08-.43.12-.64L14.68,21.91A11.25,11.25,0,0,0,13.52,21.86Z"></path><path class="clsrqq-2" d="M33.51,43.57l5,5c.12-.18.32-.49.5-.79s.37-.65.56-1l-5-5C34.13,42.43,33.79,43.07,33.51,43.57Z"></path><path class="clsrqq-2" d="M34.2,22.26l8.67,8.67A12,12,0,0,0,34.2,22.26Z"></path><path class="clsrqq-2" d="M31.65,29a5.31,5.31,0,0,1,1.47.38l-6.58-6.58a11.73,11.73,0,0,0-1.86,1L30,29.09A5.13,5.13,0,0,1,31.65,29Z"></path><path class="clsrqq-2" d="M36.44,33.76c0,.55-.08,1.08-.14,1.6L42,41.09c.24-.73.44-1.47.61-2.22l-6.58-6.58A5.22,5.22,0,0,1,36.44,33.76Z"></path><path class="clsrqq-3" d="M11.19,55H10.8A4.8,4.8,0,0,1,7.56,53.3l-.13-.16-.22-.29q-.36-.43-.87-1.14a38.54,38.54,0,0,1-2.54-4A28.8,28.8,0,0,1,0,34v-.12A13.52,13.52,0,0,1,13.51,20.46a13.34,13.34,0,0,1,8.81,3.3,13.36,13.36,0,0,1,8.82-3.3h0A13.48,13.48,0,0,1,44.67,33.69,27.38,27.38,0,0,1,42,45.1a32.88,32.88,0,0,1-1.79,3.36c-.2.32-.43.67-.55.85l0,.07a3.55,3.55,0,0,1-.23.4,1.59,1.59,0,0,0-.11.16l-.1.13A4.76,4.76,0,0,1,35.34,52a4.83,4.83,0,0,1-4.82-4.78,4.73,4.73,0,0,1,.94-2.91.62.62,0,0,1,.12-.19c.06-.11.13-.21.21-.34L32,43.4c.3-.52.77-1.36,1.26-2.38A17.9,17.9,0,0,0,35,33.81a3.93,3.93,0,0,0-3.53-3.45,4,4,0,0,0-2.87.88,3.9,3.9,0,0,0-1.41,2.66v.49a4.8,4.8,0,0,1-4.72,4.81l-.2,0a4.74,4.74,0,0,1-4.38-3.13,4.85,4.85,0,0,1-.5-2,3.92,3.92,0,0,0-7.81,0A19.6,19.6,0,0,0,12.23,43a25.42,25.42,0,0,0,1.88,3c.24.34.5.68.57.76a.93.93,0,0,1,.16.22,4.92,4.92,0,0,1-.49,6.79l-.08.08A4.72,4.72,0,0,1,11.19,55Zm2.33-33.11a12.13,12.13,0,0,0-12.12,12V34A27.39,27.39,0,0,0,5,47a37.29,37.29,0,0,0,2.44,3.89c.33.45.61.81.82,1.07l.27.35.07.08a3.34,3.34,0,0,0,4.72.38,3.51,3.51,0,0,0,.39-4.93l-.07-.11c-.11-.13-.42-.53-.7-.92a27.6,27.6,0,0,1-2-3.15,21,21,0,0,1-2.79-9.61,5.32,5.32,0,0,1,10.61,0,3.57,3.57,0,0,0,.38,1.53,3.4,3.4,0,0,0,3,2.28l.16,0a3.43,3.43,0,0,0,3.49-3.41v-.56a5.33,5.33,0,0,1,10.61-.07,19.24,19.24,0,0,1-1.92,7.86c-.5,1.06-1,1.94-1.32,2.5l-.23.37-.17.27-.08.13a.42.42,0,0,1-.09.14l0,0a3.43,3.43,0,0,0,2.71,5.49h0A3.39,3.39,0,0,0,38,49.22l0-.08.15-.19.1-.21.06-.09h0l.06-.1c.11-.18.33-.51.52-.82a29.44,29.44,0,0,0,1.72-3.23,25.84,25.84,0,0,0,2.59-10.76,12.1,12.1,0,0,0-20.43-8.56.81.81,0,0,1-.42.22.69.69,0,0,1-.32,0,.61.61,0,0,1-.28-.16A12,12,0,0,0,13.52,21.86Z"></path><path class="clsrqq-3" d="M29.54,11.31c-2.5-.79-5.48,2.84-7.18,5.34V0h-1V16.88c-2-2.21-5.63-5.53-8-4.34A2.49,2.49,0,0,0,12,15.47c.66,2.65,4.14,4.15,7.58,4.44a2.78,2.78,0,0,0-.39,1.67A2.87,2.87,0,0,0,22,24.24h.22a2.86,2.86,0,0,0,2.64-3.08,2.75,2.75,0,0,0-.61-1.56c3.43-.77,6.77-2.81,7-5.59A2.49,2.49,0,0,0,29.54,11.31Zm-16.2,3.82A1.08,1.08,0,0,1,14,13.8a1.11,1.11,0,0,1,.52-.12c1.58,0,4.36,2.39,6.52,4.89C17.7,18.62,13.89,17.34,13.34,15.13Zm9.81,7.19a1.48,1.48,0,0,1-2.59-.84A1.47,1.47,0,0,1,21.5,20h.09l.45,0h.19a1.45,1.45,0,0,1,.92,2.39Zm-.28-3.9c1.84-2.92,4.37-5.82,5.92-5.82a.86.86,0,0,1,.32.05,1.09,1.09,0,0,1,.81,1.22C29.71,16.14,26.13,18,22.87,18.42Z"></path></svg>