<svg xmlns="http://www.w3.org/2000/svg" width="186" height="58" viewBox="0 0 186 58" fill="none"><g clip-path="url(#clip0)"><path d="M64.0649 28.6441C64.0114 27.325 64.2197 26.0083 64.6777 24.77C65.1356 23.5318 65.8343 22.3965 66.7333 21.4296C67.6323 20.4627 68.7139 19.6834 69.9156 19.1367C71.1173 18.59 72.4154 18.2866 73.7349 18.2441H74.1449C79.2449 18.2441 82.2549 21.2441 83.1449 24.7541L79.9749 25.8141C79.6901 24.5062 78.9446 23.3442 77.8743 22.5401C76.8041 21.736 75.4805 21.3435 74.1449 21.4341C70.8449 21.4341 67.5349 23.8441 67.5349 28.7041C67.5349 33.5641 70.7649 35.8841 74.1849 35.8841C75.5271 35.9208 76.8428 35.5062 77.9215 34.7067C79.0002 33.9072 79.7796 32.769 80.1349 31.4741L83.2449 32.4741C82.7081 34.4493 81.514 36.1825 79.8597 37.3878C78.2054 38.5931 76.1896 39.1985 74.1449 39.1041C71.5182 39.1523 68.9798 38.1555 67.0878 36.3329C65.1957 34.5102 64.1049 32.0108 64.0549 29.3841C64.0449 29.1441 64.0549 28.8941 64.0649 28.6441Z" fill="white"></path><path d="M89.4167 38.6446H86.1367V18.1846H89.4167V26.1846C89.8929 25.6198 90.4917 25.1713 91.1676 24.8732C91.8435 24.5751 92.5786 24.4353 93.3167 24.4646C96.7067 24.4646 98.3167 26.8946 98.3167 29.9246V38.6446H95.1567V30.5046C95.2514 29.8107 95.0697 29.1073 94.6507 28.5462C94.2316 27.985 93.6089 27.6109 92.9167 27.5046C92.7206 27.4844 92.5229 27.4844 92.3267 27.5046C91.5682 27.5046 90.8408 27.8059 90.3044 28.3422C89.768 28.8786 89.4667 29.606 89.4667 30.3646C89.4617 30.4478 89.4617 30.5313 89.4667 30.6146L89.4167 38.6446Z" fill="white"></path><path d="M105.676 30.7646L109.196 30.2146C109.996 30.1146 110.196 29.7046 110.196 29.2146C110.196 28.0546 109.416 27.1246 107.596 27.1246C106.908 27.069 106.227 27.2867 105.699 27.7304C105.171 28.174 104.839 28.808 104.776 29.4946V29.6446L101.776 28.9746C102.026 26.5946 104.186 24.4746 107.566 24.4746C111.806 24.4746 113.416 26.8746 113.416 29.6746V36.5046C113.412 37.2447 113.469 37.9838 113.586 38.7146H110.586C110.478 38.1345 110.434 37.5443 110.456 36.9546C110 37.6554 109.369 38.2246 108.625 38.6053C107.881 38.9861 107.05 39.1651 106.216 39.1246C105.076 39.2187 103.945 38.8568 103.071 38.1182C102.197 37.3795 101.652 36.3245 101.556 35.1846C101.556 35.1146 101.556 35.0446 101.556 34.9846C101.506 32.4546 103.316 31.0946 105.676 30.7646ZM110.216 32.9746V32.3446L106.626 32.8846C106.138 32.9001 105.676 33.1033 105.335 33.4518C104.994 33.8002 104.801 34.267 104.796 34.7546C104.8 34.9962 104.851 35.2346 104.948 35.456C105.045 35.6773 105.185 35.8771 105.36 36.0437C105.535 36.2103 105.742 36.3404 105.968 36.4264C106.194 36.5124 106.434 36.5526 106.676 36.5446H106.826C107.235 36.5874 107.649 36.5489 108.043 36.4311C108.437 36.3134 108.805 36.1188 109.123 35.8585C109.442 35.5982 109.706 35.2775 109.901 34.9147C110.095 34.5519 110.216 34.1542 110.256 33.7446C110.27 33.4869 110.253 33.2283 110.206 32.9746H110.216Z" fill="white"></path><path d="M118.997 17.9048C119.279 17.9008 119.558 17.9526 119.82 18.0571C120.082 18.1616 120.321 18.3168 120.522 18.5138C120.724 18.7108 120.885 18.9457 120.995 19.205C121.106 19.4643 121.164 19.7429 121.167 20.0248C121.167 20.4467 121.042 20.8593 120.808 21.2105C120.574 21.5618 120.242 21.836 119.852 21.9988C119.463 22.1617 119.034 22.2057 118.62 22.1256C118.206 22.0454 117.825 21.8446 117.524 21.5483C117.224 21.252 117.017 20.8735 116.932 20.4603C116.846 20.0472 116.884 19.6179 117.041 19.2264C117.199 18.8349 117.468 18.4986 117.816 18.2599C118.164 18.0212 118.575 17.8907 118.997 17.8848V17.9048ZM117.397 38.7048V24.8848H120.677V38.6448L117.397 38.7048Z" fill="white"></path><path d="M128.145 38.6441H124.875V24.8841H128.065V26.7141C128.481 26.0114 129.078 25.4335 129.794 25.0411C130.51 24.6488 131.319 24.4564 132.135 24.4841C135.495 24.4841 137.135 26.9141 137.135 29.9441V38.6441H133.865V30.5041C133.865 28.8141 133.095 27.4441 131.035 27.4441C130.654 27.4467 130.278 27.5243 129.927 27.6724C129.576 27.8206 129.258 28.0364 128.99 28.3076C128.723 28.5787 128.511 28.8999 128.368 29.2527C128.225 29.6056 128.152 29.9832 128.155 30.3641C128.155 30.4741 128.155 30.5841 128.155 30.6941L128.145 38.6441Z" fill="white"></path><path d="M141.096 38.6446V18.1846H144.376V38.6446H141.096Z" fill="white"></path><path d="M150.226 17.9043C150.648 17.9023 151.061 18.0258 151.413 18.2591C151.764 18.4924 152.039 18.825 152.201 19.2146C152.364 19.6042 152.407 20.0333 152.325 20.4474C152.243 20.8615 152.04 21.2419 151.742 21.5404C151.443 21.8389 151.063 22.042 150.649 22.1239C150.234 22.2057 149.805 22.1627 149.416 22.0002C149.026 21.8378 148.694 21.5632 148.46 21.2114C148.227 20.8596 148.104 20.4464 148.105 20.0243C148.111 19.4637 148.336 18.9275 148.732 18.531C149.129 18.1346 149.665 17.9095 150.226 17.9043ZM148.616 38.7043V24.8843H151.866V38.6443L148.616 38.7043Z" fill="white"></path><path d="M159.385 38.6448H156.105V24.8848H159.295V26.7148C159.712 26.0129 160.31 25.4356 161.026 25.0434C161.741 24.6511 162.55 24.4582 163.365 24.4849C166.725 24.4849 168.365 26.9148 168.365 29.9448V38.6448H165.085V30.5049C165.18 29.8109 164.998 29.1076 164.579 28.5464C164.16 27.9853 163.538 27.6112 162.845 27.5049C162.646 27.4848 162.445 27.4848 162.245 27.5049C161.482 27.5128 160.752 27.8218 160.214 28.3648C159.677 28.9078 159.375 29.6409 159.375 30.4049C159.365 30.5213 159.365 30.6384 159.375 30.7549L159.385 38.6448Z" fill="white"></path><path d="M179.557 30.6946L185.327 38.6946H181.327L177.327 33.0246L175.637 34.8046V38.6446H172.387V18.1846H175.637V30.4446L180.917 24.8846H185.267L179.557 30.6946Z" fill="white"></path><path d="M25.2358 12.6445L39.4158 20.7845V37.1445L25.2758 45.3345L11.1058 37.2145V20.8645L25.2358 12.6445ZM25.2358 0.644531L20.0358 3.64453L5.87578 11.8645L0.675781 14.8645V43.2345L5.87578 46.2345L20.0558 54.3745L25.2558 57.3745L30.4558 54.3745L44.5858 46.1745L49.7858 43.1745V14.7645L44.5858 11.7645L30.4158 3.64453L25.2158 0.644531H25.2358Z" fill="white"></path></g><defs><clipPath id="clip0"><rect width="184.65" height="56.71" fill="white" transform="translate(0.675781 0.644531)"></rect></clipPath></defs></svg>