<svg xmlns="http://www.w3.org/2000/svg" width="183" height="72" viewBox="0 0 183 72" fill="none"><g clip-path="url(#clip0)"><path d="M80.6387 19.8855H87.4412V47.314H94.2437V13.0283H87.4412C83.6998 13.0283 80.6387 16.114 80.6387 19.8855Z" fill="white"></path><path d="M101.047 47.3146H107.849V33.6003C107.849 29.8289 104.788 26.7432 101.047 26.7432V47.3146Z" fill="white"></path><path d="M114.652 26.7432V47.3146H121.455V33.6003H128.257V40.4574C128.257 44.2289 131.318 47.3146 135.06 47.3146V33.6003C135.06 29.8289 131.999 26.7432 128.257 26.7432H114.652Z" fill="white"></path><path d="M175.874 26.7426H169.071V19.8855C169.071 16.114 166.01 13.0283 162.269 13.0283V40.4569H148.664V33.5998H155.466V26.7426H148.664C144.922 26.7426 141.861 29.8283 141.861 33.5998V40.4569C141.861 44.2283 144.922 47.314 148.664 47.314H169.071V33.5998H175.874V40.4569C175.874 44.2283 178.935 47.314 182.676 47.314V33.5998C182.676 29.8283 179.615 26.7426 175.874 26.7426Z" fill="white"></path><path d="M101.047 19.8855H107.849C107.849 16.114 104.788 13.0283 101.047 13.0283V19.8855Z" fill="white"></path><path d="M91.2338 54.1719V58.6633H90.6046L88.1727 55.5433V58.6462H87.4414V54.1719H88.0706L90.5195 57.2919V54.1719H91.2338Z" fill="white" fill-opacity="0.7"></path><path d="M105.077 58.6633H102.441V54.1719H105.009V54.909H103.224V56.0233H104.822V56.7605H103.224V57.9262H105.077V58.6633Z" fill="white" fill-opacity="0.7"></path><path d="M117.713 54.909H116.268V54.1719H119.941V54.909H118.495V58.6633H117.713V54.909Z" fill="white" fill-opacity="0.7"></path><path d="M136.59 54.1719H137.339L136.063 58.6633H135.332L134.261 55.4233L133.206 58.6633H132.475L131.148 54.1719H132.033L132.934 57.3776L133.92 54.1719H134.703L135.723 57.3776L136.59 54.1719Z" fill="white" fill-opacity="0.7"></path><path d="M148.545 56.4862C148.545 55.8347 148.766 55.2862 149.191 54.8404C149.633 54.3947 150.195 54.1719 150.858 54.1719C151.521 54.1719 152.082 54.3776 152.524 54.8062C152.967 55.2347 153.188 55.8004 153.188 56.4862C153.188 57.1547 152.967 57.7033 152.524 58.149C152.082 58.5947 151.538 58.8004 150.858 58.8004C150.195 58.8004 149.633 58.5947 149.191 58.1662C148.749 57.7376 148.545 57.1719 148.545 56.4862ZM149.361 56.4862C149.361 56.9319 149.497 57.309 149.786 57.6176C150.075 57.909 150.433 58.0633 150.841 58.0633C151.3 58.0633 151.657 57.909 151.929 57.6176C152.201 57.3262 152.337 56.949 152.337 56.4862C152.337 56.0233 152.201 55.6462 151.912 55.3547C151.623 55.0633 151.266 54.909 150.858 54.909C150.433 54.909 150.075 55.0633 149.786 55.3547C149.514 55.6462 149.361 56.0233 149.361 56.4862Z" fill="white" fill-opacity="0.7"></path><path d="M165.159 56.9999V58.6799H164.377V54.1885C164.598 54.1885 164.836 54.1885 165.091 54.1885C165.346 54.1885 165.567 54.1885 165.72 54.1885C166.792 54.1885 167.336 54.6513 167.336 55.5771C167.336 55.9199 167.251 56.1942 167.081 56.4171C166.911 56.6228 166.707 56.7771 166.486 56.8456L167.88 58.6799H166.928L165.703 56.9999H165.159ZM165.686 54.9085C165.669 54.9085 165.635 54.9085 165.584 54.9085C165.533 54.9085 165.465 54.9085 165.38 54.9085C165.295 54.9085 165.21 54.9085 165.142 54.9085V56.2456H165.652C165.908 56.2456 166.112 56.177 166.265 56.057C166.418 55.937 166.503 55.7656 166.503 55.5428C166.52 55.1313 166.248 54.9085 165.686 54.9085Z" fill="white" fill-opacity="0.7"></path><path d="M179.853 58.6633H179.07V54.1719H179.853V56.2976L181.604 54.1719H182.54L180.703 56.2633L182.642 58.6633H181.655L179.836 56.349V58.6633H179.853Z" fill="white" fill-opacity="0.7"></path><path fill-rule="evenodd" clip-rule="evenodd" d="M56.8127 12.6172C54.7209 11.2458 53.2414 10.6629 53.2414 10.6629C53.2414 10.6629 54.2108 10.6972 55.6223 10.8001C56.1665 10.8343 56.7617 10.8858 57.3909 10.9543C57.9011 11.0058 58.4113 11.0572 58.9385 11.1086C58.0201 10.3715 57.1018 9.72005 56.1835 9.12005C50.6735 5.53719 45.5036 4.40576 41.184 4.40576C37.3747 4.40576 34.2455 5.28005 32.1538 6.08576C30.4701 6.73719 29.4498 7.35434 29.2967 7.44005L31.4735 3.96005L31.6436 2.24576C32.2388 2.29719 32.749 2.65719 33.0041 3.18862C33.1061 3.41148 33.1741 3.65148 33.1741 3.90862C35.2829 3.24005 38.0209 2.69148 41.184 2.69148C46.575 2.69148 53.1394 4.33719 59.9759 9.75434C60.5711 10.2343 60.7921 11.0401 60.503 11.7601C60.35 12.1372 60.0779 12.4286 59.7548 12.6001C60.9792 13.5429 62.3057 14.7086 63.6152 16.1143C68.3259 21.1886 72.6795 29.3315 71.523 41.4686C71.455 42.1543 70.9788 42.7372 70.3156 42.9429C70.0095 43.0286 69.7034 43.0458 69.4143 42.9601C69.0401 48.1543 66.7953 56.7258 57.1188 64.0458C56.5406 64.4915 55.7413 64.5086 55.1461 64.0972C54.908 63.9258 54.7039 63.7029 54.5849 63.4629C54.4829 63.5486 54.3808 63.6515 54.2958 63.7372C51.5408 66.2401 47.3743 68.9829 41.7112 69.7715C41.6262 69.7886 41.5582 69.7886 41.4731 69.7886H41.4221C40.7249 69.7886 40.0956 69.3601 39.8405 68.6915C39.8065 68.5886 39.7725 68.4686 39.7555 68.3658C38.361 68.6401 36.7284 68.8286 34.8407 68.8286C31.6776 68.8286 27.8682 68.2801 23.3956 66.7029C22.5453 66.3943 22.0691 65.4686 22.3242 64.5943C22.5793 63.7201 23.4636 63.2058 24.3479 63.4115C25.6064 63.7201 26.8818 63.8743 28.1913 63.8743C36.7454 63.8743 43.4629 57.4286 43.4629 49.7315C43.4629 45.9258 41.8643 42.4458 39.1773 39.8743C39.1773 39.8915 39.1603 39.8915 39.1603 39.9086C38.5481 40.7143 37.7998 41.6743 37.2726 42.3772C36.4223 43.5772 36.1332 44.2458 36.2012 44.8458C36.4903 46.8001 35.8951 48.7201 34.7897 50.1258C34.7727 50.1429 34.7557 50.1601 34.7387 50.1772C34.2965 50.6915 33.4802 51.4115 32.732 52.0629C32.698 52.0972 32.6639 52.1143 32.6299 52.1486C31.8817 52.8001 31.1504 53.4515 30.6232 53.9829C30.6062 54.0001 30.5892 54.0172 30.5892 54.0172C29.2797 55.2515 27.5451 55.4401 26.5247 55.4401C26.2356 55.4401 25.9805 55.4229 25.8105 55.4058H25.7934C25.6234 55.3886 25.5554 55.3886 25.5214 55.3886H25.3513C25.3173 55.3886 25.3003 55.3886 25.2833 55.3886C25.2493 55.4058 25.1982 55.4401 25.0962 55.5258C24.9772 55.6286 24.8071 55.7658 24.603 55.9543C24.1779 56.3486 23.6847 56.5201 23.3446 56.6058C22.9534 56.7086 22.5453 56.7429 22.1711 56.7429C21.1848 56.7429 20.0454 56.5201 19.11 56.2801C18.1407 56.0401 17.2734 55.7486 16.7632 55.5772C16.7462 55.5772 16.7292 55.5601 16.7122 55.5601C16.219 55.3715 15.8618 55.0458 15.6068 54.7715C15.3517 54.4801 15.1136 54.1715 14.9265 53.8458C14.5354 53.2115 14.1952 52.4572 13.9061 51.7543C13.3449 50.3829 12.8858 48.7886 12.8007 48.0172C12.7497 47.5029 12.8688 47.0058 12.9708 46.7143C13.0728 46.3543 13.2259 45.9943 13.3789 45.6515C13.6851 44.9658 14.0762 44.2115 14.4333 43.5429L14.4503 43.5086C14.6884 43.0458 14.9095 42.6343 15.0796 42.2915C15.1646 42.12 15.2156 41.9829 15.2666 41.8801C15.3006 41.8115 15.3006 41.7772 15.3177 41.7601C15.4027 41.3143 15.7088 39.1372 15.9979 36.7886C16.287 34.4743 16.5761 32.1772 16.6271 31.7143C16.6781 31.3201 16.6611 31.1315 16.6271 30.9429C16.5761 30.7372 16.4741 30.4286 16.1339 29.8801C16.1339 29.8801 16.1339 29.8629 16.1169 29.8629C15.3687 28.5943 15.3347 27.3429 15.6408 25.8001C11.7804 23.1429 2.13787 15.96 1.54265 15.4629C1.54265 15.4629 1.54265 15.4629 1.52565 15.4458C1.16852 15.1543 0.811389 14.7086 0.709352 14.1086C0.658333 13.8172 0.67534 13.5258 0.743364 13.2858C0.777377 13.1658 0.811389 13.0629 0.862407 12.9772C0.879414 12.9258 0.913426 12.8915 0.930432 12.8572C0.947438 12.8401 0.947438 12.8229 0.964444 12.8058C0.964444 12.7886 0.981451 12.7886 0.981451 12.7715C0.981451 12.7715 0.981451 12.7715 0.981451 12.7543C0.981451 12.7543 0.981451 12.7543 2.39296 13.6972C2.39296 13.6972 2.27392 13.8686 2.61404 14.1429C2.64806 14.1601 2.68207 14.2115 2.7671 14.2629C2.7841 14.2629 2.7841 14.2801 2.80111 14.2972C2.97117 14.4343 3.24327 14.64 3.6004 14.9143C4.07657 15.2743 4.72281 15.7543 5.45407 16.3029C9.24645 19.1315 15.6918 23.8801 17.5114 25.0801C16.9502 27.1029 16.9502 28.0629 17.5114 29.0229C18.2937 30.3086 18.3447 30.9943 18.2427 31.9543C18.1237 32.9143 17.1203 41.1772 16.8992 42.1886C16.8142 42.6001 16.372 43.4229 15.8959 44.3486C15.1816 45.7029 14.3823 47.2458 14.4503 47.8801C14.5694 48.9429 16.0149 53.5029 17.2904 54.0172C18.2427 54.3601 20.5896 55.0801 22.1371 55.0801C22.6983 55.0801 23.1915 54.9601 23.4126 54.7372C24.3649 53.8972 24.637 53.7258 25.3173 53.7258H25.4873C25.6234 53.7258 25.7594 53.7429 25.9125 53.7429C26.0996 53.7601 26.2866 53.7772 26.4907 53.7772C27.375 53.7772 28.5484 53.6058 29.3988 52.8172C29.977 52.2343 30.7593 51.5486 31.4905 50.9143C32.3068 50.1943 33.0721 49.5258 33.4292 49.1143C34.2625 48.0515 34.7047 46.5772 34.4836 45.1201C34.3135 43.7658 35.0448 42.5829 35.8781 41.4001C36.9325 39.9943 38.8882 37.4572 38.8882 37.4572C39.0243 37.5601 39.1603 37.6629 39.2963 37.7658C39.6025 38.0229 39.9086 38.28 40.1977 38.5543C43.2758 41.4343 45.1465 45.4115 45.1465 49.7658C45.1465 57.3601 39.4664 63.6858 31.8476 65.2629C30.6742 65.5029 29.4328 65.6401 28.1743 65.6401C26.7288 65.6401 25.3343 65.4686 23.9398 65.1258C25.4363 65.6572 26.8478 66.0515 28.1743 66.3601C29.5008 66.6686 30.7422 66.8572 31.9157 66.9943C32.953 67.0972 33.9224 67.1486 34.8237 67.1486C37.2386 67.1486 39.2113 66.8058 40.7249 66.3943C43.1908 65.7258 44.4662 64.8343 44.4662 64.8343C44.4662 64.8343 44.1431 65.2629 43.5479 65.9315C43.0547 66.4801 42.3915 67.1829 41.5922 67.9372C41.5412 67.9715 41.5072 68.0229 41.4561 68.0572C41.4391 68.0743 41.4221 68.0915 41.4051 68.1086H41.4561C42.5105 67.9543 43.5139 67.7315 44.4662 67.4572C49.313 66.0343 52.7312 63.0858 54.755 60.8743C56.2345 59.2458 56.9658 57.9943 56.9658 57.9943C56.9658 57.9943 56.8297 58.9201 56.6256 60.0858C56.5406 60.6001 56.4216 61.1486 56.3195 61.6801C56.2345 62.0401 56.1665 62.3829 56.0814 62.7086C56.8297 62.1429 57.544 61.5601 58.2072 60.9772C66.3872 53.7601 67.6966 45.7201 67.7647 41.5201C67.7647 41.3315 67.7647 41.1429 67.7647 40.9715C67.7647 40.9715 67.7647 40.9715 67.7647 40.9543C67.7477 39.7029 67.6286 38.8801 67.5946 38.6572V38.6229C67.5946 38.6058 67.5946 38.6058 67.5946 38.5886C67.5946 38.5886 67.6116 38.6058 67.6116 38.6229C67.6116 38.6229 67.6286 38.64 67.6286 38.6572C67.7307 38.7772 67.9688 39.0858 68.2579 39.4458C68.4279 39.6515 68.615 39.8915 68.8021 40.1143C69.0231 40.3886 69.2612 40.6629 69.4653 40.9201C69.6013 41.0743 69.7204 41.2286 69.8224 41.3486C69.8904 40.5943 69.9415 39.8572 69.9755 39.1543C69.9755 39.0515 69.9755 38.9658 69.9925 38.8629C70.4687 23.7943 61.8635 15.9258 56.8127 12.6172ZM18.7189 9.49719C18.7529 9.63434 18.8039 9.77148 18.8379 9.90862C19.093 10.7143 19.3821 11.6229 19.6882 12.3772C19.9773 11.5201 20.3005 10.7486 20.6746 10.0458C23.0725 5.55434 27.0009 4.32005 29.3988 4.01148C30.6402 3.85719 31.4565 3.92576 31.4565 3.92576C31.6266 2.21148 31.6266 2.21148 31.6096 2.21148H31.5926H31.5755H31.5585C31.5245 2.21148 31.4905 2.21148 31.4565 2.21148C31.3715 2.21148 31.2524 2.19434 31.0994 2.19434C30.8103 2.19434 30.4021 2.19434 29.9089 2.22862C28.9226 2.29719 27.5791 2.52005 26.1166 3.05148C24.0418 3.82291 21.763 5.26291 19.9943 7.81719C19.9603 7.71434 19.9433 7.62862 19.9263 7.54291C19.8923 7.40576 19.8583 7.28576 19.8413 7.20005C19.8243 7.16576 19.8243 7.13148 19.8243 7.11434V7.09719C19.6712 6.51434 19.2461 6.05148 18.6849 5.88005C18.1237 5.70862 17.5114 5.82862 17.0523 6.22291L18.1747 7.50862C17.0523 6.22291 17.0523 6.22291 17.0523 6.22291L17.0353 6.24005C17.0183 6.25719 17.0013 6.27434 16.9673 6.29148C16.9162 6.34291 16.8482 6.39434 16.7802 6.48005C16.6271 6.63434 16.4231 6.85719 16.202 7.13148C15.7428 7.69719 15.1646 8.52005 14.6544 9.58291C13.9402 11.1086 13.3789 13.0972 13.549 15.4801C11.6783 14.7943 9.73963 14.1086 8.07302 13.5086C6.79756 13.0629 5.67515 12.6515 4.85886 12.3772C4.45071 12.2401 4.11059 12.1201 3.85549 12.0343C3.73645 12.0001 3.63441 11.9658 3.54938 11.9315C3.49836 11.9143 3.36231 11.8629 3.24327 11.8458C3.20926 11.8458 3.17525 11.8286 3.15824 11.8286C2.69907 11.7601 2.23991 11.8115 1.81475 12.0001C1.61068 12.0858 1.44062 12.2058 1.30457 12.3429C1.23654 12.4115 1.18552 12.4629 1.13451 12.5315C1.1175 12.5658 1.08349 12.5829 1.06648 12.6172C1.03247 12.6686 1.01546 12.6858 0.998457 12.7029L0.981451 12.72V12.7372C0.981451 12.7372 0.981451 12.7372 2.39296 13.6972C2.39296 13.6972 2.51201 13.5258 2.90315 13.5772C2.92015 13.5772 2.97117 13.5943 3.0392 13.6286C3.22626 13.6972 3.58339 13.8172 4.05957 13.9715C4.63778 14.1772 5.38605 14.4343 6.25336 14.7429C8.37913 15.4972 11.2192 16.5258 13.8211 17.4686C14.5014 17.7086 15.1476 17.9486 15.7768 18.1886C15.5557 17.5029 15.4027 16.8343 15.3177 16.2001C14.8755 13.0458 15.9129 10.6458 16.8482 9.18862C17.5285 8.12576 18.1747 7.56005 18.1747 7.56005C18.1747 7.56005 18.3958 8.41719 18.7189 9.49719ZM2.46099 15.2229C2.44398 15.2229 2.46099 15.2229 2.46099 15.2229V15.2229Z" fill="white"></path><path d="M31.8656 47.6571C31.6955 47.88 31.0833 48.4285 30.5221 48.9428C30.352 49.0971 30.182 49.2514 30.0289 49.3885C29.7908 49.6114 29.5527 49.8171 29.3147 50.0228C28.8725 50.4171 28.4303 50.8114 28.0732 51.1885C27.8521 51.4114 27.41 51.5314 26.7297 51.5314H25.0631C25.4032 51.0857 25.9984 50.4 26.6447 49.6971C27.0018 49.3714 27.3589 49.0457 27.6821 48.7714C28.2603 48.2914 28.8215 47.9657 29.3317 47.6914C30.25 47.1771 30.9302 46.8 30.9302 45.84C30.9643 43.92 29.6888 43.56 28.7364 43.5428C29.0255 43.4743 29.3317 43.4228 29.6378 43.4228C28.5834 43.1485 27.2399 43.4228 26.6277 44.04C26.1855 44.4514 26.0835 45.5657 25.9814 46.68C25.9304 47.2285 25.8794 47.7943 25.7944 48.2571C25.5393 49.56 24.757 50.2971 23.5496 51.3943C23.4135 51.5143 23.2605 51.6514 23.1244 51.7885C23.0904 51.8228 23.0564 51.8571 23.0224 51.8914L19.332 51.0685C19.332 51.0685 21.7809 49.7828 22.1721 48.3085C22.5292 47.0571 21.6109 43.1657 21.3898 42.1714C21.3558 42.0514 21.3388 41.9828 21.3388 41.9485L21.3558 41.9657C21.5258 42.12 22.5292 43.0628 23.0054 44.5371C23.8897 42.0685 25.0631 39.7028 25.4032 39.48C25.6923 39.2914 29.0766 37.4742 30.0119 36.96C29.6038 38.0914 29.1956 39.2057 28.9235 40.0285C27.9201 40.3028 26.9168 40.8685 26.1855 42C26.5767 41.7257 27.8011 41.5542 28.7024 41.4342C29.4847 41.3828 31.8826 42.6685 32.4948 45.0857V45.2057C32.5798 46.1485 32.3077 46.9885 31.8656 47.6571Z" fill="white" fill-opacity="0.7"></path><path d="M29.9609 39.9597C31.1004 39.8569 32.0527 40.0797 32.3078 40.1826C34.4846 36.0169 36.2192 33.7711 36.6614 33.7711C36.7124 33.7711 36.8144 33.7711 36.9505 33.7711C38.1919 33.8054 42.6135 33.9597 44.4672 29.4854C46.4399 24.6169 43.6679 20.4511 43.4638 20.1597V20.1426C45.8107 27.9083 40.6238 32.2283 37.1035 32.2969C35.1478 32.2969 32.5289 33.5826 32.5289 33.5826L29.9609 39.9597Z" fill="white" fill-opacity="0.7"></path><path d="M43.4629 20.1602C43.718 20.2802 47.8845 22.3202 49.0919 28.6459C51.8639 31.903 53.5986 35.983 54.0747 40.303C54.0747 40.5773 54.4659 40.9716 54.857 41.3144C55.3672 41.8287 55.8604 42.3259 55.8604 42.8402C55.8604 44.1944 55.7413 45.5487 55.5203 46.8344C55.4182 47.2287 54.9761 47.503 54.4829 47.7944L54.4319 47.8287C54.4149 47.8459 54.3979 47.8459 54.3809 47.863C54.3468 47.8802 54.3298 47.8973 54.2958 47.9144C54.2278 47.9659 54.1428 48.0173 54.0577 48.0687C53.7686 48.2573 53.4625 48.4459 53.4115 48.583C52.2721 52.6459 49.8912 56.263 46.7111 59.023C51.966 56.0402 55.9114 51.0344 57.544 45.0859C58.0882 42.7373 58.1732 40.2859 57.7481 37.783C55.7413 26.2973 44.1261 20.4344 43.4629 20.1602Z" fill="white" fill-opacity="0.7"></path><path d="M30.0605 20.7256C31.0979 20.777 33.2917 20.6742 35.3835 19.1484C35.5876 19.6456 35.8086 20.1427 36.0127 20.6399C33.4278 21.3256 31.1319 20.9656 30.0605 20.7256Z" fill="white" fill-opacity="0.7"></path><path d="M37.7478 20.0054C39.1423 19.3539 40.5369 18.3596 41.8123 16.8168C40.5709 16.4568 39.2954 16.1996 37.9859 16.0625C37.5948 16.6796 37.2036 17.2454 36.8125 17.6911C37.0506 18.2568 37.3907 19.0968 37.7478 20.0054Z" fill="white" fill-opacity="0.7"></path><path d="M48.872 37.5941C49.4332 34.7312 49.4842 32.2455 49.3141 30.2227C51.4909 33.1541 52.8344 36.6855 53.2256 40.3541C53.2766 40.7998 53.7357 41.2455 54.1779 41.7084C54.569 42.0512 55.0112 42.4969 55.0112 42.7712C55.0112 44.0569 54.8922 45.3598 54.6711 46.6455C54.6201 46.7998 54.1609 47.0741 53.7868 47.2798L53.7187 47.3141C53.1575 47.5884 52.6643 47.8798 52.5453 48.3255C51.3209 52.6627 48.7019 56.4855 45.1816 59.177C50.3855 53.7427 52.9024 44.7427 48.872 37.5941Z" fill="white" fill-opacity="0.7"></path><path fill-rule="evenodd" clip-rule="evenodd" d="M24.161 16.2164C24.161 16.2164 23.1576 8.96495 28.1744 5.93066C28.1574 5.93066 28.1234 5.94781 28.0724 5.96495C27.052 6.35924 19.5693 9.18781 24.161 16.2164ZM34.9769 9.58209C38.8203 8.12495 44.1772 7.33638 52.4932 8.91352C48.8029 7.06209 44.9595 6.10209 41.1161 6.05066C39.6706 6.05066 38.3271 6.17066 37.1027 6.39352C32.7491 7.18209 29.1778 10.3364 27.9533 14.5535C27.9533 14.5535 28.8377 13.1478 30.9634 11.6907L31.0485 11.5707C31.8307 10.4907 33.0042 8.87924 34.1436 7.52495C34.4837 8.22781 34.8748 9.13638 34.9769 9.58209ZM54.2959 18.9249C62.1698 24.1535 65.741 29.9478 68.2409 36.7535C68.1219 29.5535 65.724 23.3649 61.0984 18.4107L60.9793 18.2907C56.8978 13.9535 50.9287 11.9307 45.0275 12.7707C42.7997 13.0449 40.5719 13.5078 38.8373 14.0564C38.5652 14.1078 38.2761 14.1764 38.004 14.2792H38.123C38.5482 14.245 46.6941 13.8507 54.2959 18.9249ZM61.5405 54.7021C60.7072 55.8335 59.7549 57.0164 58.6325 58.1307C65.8261 44.1764 58.9726 31.405 58.6835 30.9078C59.1937 31.4221 59.6868 31.9707 60.129 32.4849C65.673 38.6564 66.3363 47.9478 61.5405 54.7021ZM17.4945 11.4335C17.2905 12.2564 15.4028 19.4907 21.7461 19.6964C17.9707 17.3992 17.5115 11.4335 17.5115 11.3821V11.3992V11.4164L17.4945 11.4335ZM28.5656 26.5192L25.6575 31.5249C25.6575 31.5249 28.3445 30.2907 29.3989 28.7135C30.2322 27.3592 28.5656 26.5192 28.5656 26.5192ZM26.6269 49.7135C26.984 49.3878 27.3411 49.0621 27.6642 48.7878C28.2424 48.3078 28.8036 47.9821 29.3138 47.7078C30.2322 47.1935 30.9124 46.8164 30.9124 45.8735C30.9464 43.9535 29.671 43.5935 28.7186 43.5764C28.7356 43.5764 28.7526 43.5764 28.7696 43.5592C28.2594 43.6792 27.8513 43.8507 27.8513 43.8507C27.8513 43.8507 29.4669 43.5764 30.0791 44.7421C30.6913 45.9249 30.1982 46.5935 29.1948 47.2792C28.6846 47.6049 27.5962 48.6678 26.6269 49.7135ZM31.9158 32.365C31.6607 32.5878 30.7934 34.8164 29.9941 36.9935C29.0417 37.5078 25.6745 39.3078 25.3854 39.5135C25.0453 39.7364 23.8719 42.1021 22.9875 44.5707C22.5114 43.0964 21.508 42.1535 21.3379 41.9992C21.3209 41.9821 21.3209 41.9821 21.3209 41.9821C21.3209 42.0164 21.3379 42.0849 21.3719 42.2049C21.61 43.1992 22.5114 47.0735 22.1542 48.3421C21.7631 49.7992 19.3142 51.1021 19.3142 51.1021L23.0045 51.9249C22.2733 52.5764 21.7461 52.7821 21.3209 52.7821C20.3686 52.6107 19.2632 52.3364 18.4809 52.0449C17.9197 51.3078 17.0864 48.8907 16.8653 47.8792C16.9844 47.4678 17.3585 46.7478 17.6986 46.1307C17.8347 45.8907 17.9537 45.6507 18.0387 45.4621L18.1238 45.2907C18.736 44.1078 19.0931 43.4221 19.1952 42.7707C19.4162 41.8107 20.1475 35.9135 20.4196 33.4278C21.1509 34.3878 22.1542 35.9649 21.9332 36.9764C23.5487 34.6621 22.3753 32.4164 21.8141 31.5249C21.3039 30.6335 20.6407 28.8164 21.2019 26.9135C21.7631 24.9935 23.7698 19.7135 23.7698 19.7135C23.7698 19.7135 24.4331 20.8964 25.3854 20.6735C26.3378 20.4507 33.9735 8.86209 33.9735 8.86209C33.9735 8.86209 36.0313 13.4221 33.8545 16.7307C31.6267 20.0564 29.4499 20.6735 29.4499 20.6735C29.4499 20.6735 29.671 20.7078 30.0451 20.7249C31.1335 20.9649 33.4293 21.3249 35.9803 20.6392C36.8986 22.8678 37.6469 24.8392 37.6979 25.1649C37.6639 25.2335 37.5788 25.4392 37.4598 25.7478C36.8306 27.2392 35.266 31.0107 35.0789 31.3021C34.9599 31.4221 34.1946 31.6449 33.6334 31.7478C32.6981 32.0221 32.1369 32.1935 31.9158 32.365ZM33.4123 12.2221C33.4123 12.2221 33.9225 14.4678 32.63 15.9935C31.0144 17.8449 29.6199 17.7935 29.671 17.7935L33.4123 12.2221ZM20.5216 44.1764L20.0795 46.4221C20.0795 46.4221 20.9638 46.3021 20.9638 47.3135C20.9638 48.1021 20.0795 49.1649 19.3482 49.2335C18.617 49.2849 18.3449 48.3935 18.5149 47.8792C18.685 47.4335 20.5216 44.1764 20.5216 44.1764ZM29.0587 25.3878C31.0144 25.7821 31.5757 28.0964 30.5043 29.3307C29.4499 30.5135 26.7629 32.1935 25.1983 32.5878C24.8582 33.8735 22.0182 33.3249 23.0726 29.2107C23.0726 29.2107 23.5828 31.1821 24.0759 31.0107C24.5861 30.8392 30.2662 21.8392 30.2662 21.8392C30.2662 21.8392 29.5689 24.205 29.0587 25.3878ZM27.086 46.3364C27.052 46.8849 27.001 47.7764 26.6099 48.3421C26.6439 48.3078 26.7629 48.1707 26.933 48.0164C27.2221 47.7078 27.6472 47.2621 27.9023 47.0049C28.0724 46.8507 28.2765 46.7307 28.4635 46.6107C28.8717 46.3535 29.2458 46.1135 29.2458 45.5992C29.2458 44.8107 28.1914 44.6392 27.7323 44.7592C27.2901 44.8792 27.1711 45.5992 27.12 45.9935C27.103 46.0621 27.103 46.1821 27.086 46.3364ZM53.0034 48.5135C51.779 52.9535 48.99 56.8964 45.3507 59.7078C45.8098 59.4849 46.252 59.2621 46.6941 59.0049C49.8743 56.2621 52.2552 52.6278 53.3946 48.5649C53.4456 48.4278 53.7517 48.2392 54.0408 48.0507C54.1258 47.9992 54.2109 47.9478 54.2789 47.8964C54.2959 47.8792 54.3129 47.8792 54.3299 47.8621L54.3639 47.8449C54.3809 47.8278 54.3979 47.8278 54.4149 47.8107L54.466 47.7764C54.9591 47.4849 55.4013 47.2278 55.5033 46.8164C55.7244 45.5307 55.8435 44.1764 55.8435 42.8221C55.8435 42.3078 55.3333 41.8107 54.8401 41.2964C54.4489 40.9535 54.0578 40.5592 54.0578 40.2849C53.5816 35.9649 51.847 31.9021 49.075 28.6278C49.092 28.7649 49.126 28.885 49.143 29.0221C51.6599 32.2278 53.2755 36.1021 53.7177 40.2164C53.7177 40.4221 53.9728 40.6964 54.2109 40.9707C54.2959 41.0564 54.3809 41.1421 54.4489 41.2278C54.9591 41.7421 55.4523 42.2392 55.4523 42.7535C55.4523 44.1078 55.3333 45.4621 55.1122 46.7478C54.9931 47.1935 54.4489 47.5364 53.8877 47.8107C53.8197 47.8621 53.7347 47.9135 53.6497 47.9649C53.3606 48.1707 53.0544 48.3764 53.0034 48.5135ZM43.463 20.1592C44.1432 20.4507 55.7414 26.2964 57.7481 37.7649C58.1733 40.2678 58.0883 42.7192 57.5441 45.0678C58.0713 43.1135 58.3604 41.0564 58.3604 38.9478C58.3604 28.4392 51.3538 19.5592 41.8134 16.7992C40.5379 18.3421 39.1264 19.3535 37.7489 19.9878C38.7012 22.3707 39.8407 25.2849 39.8407 25.4907C39.8407 25.8335 38.7863 28.5764 38.6672 28.6964C38.5482 28.7478 37.2727 28.8678 36.7625 28.8678C36.2013 30.2221 35.6401 31.5078 35.5381 31.6792C35.368 31.9021 34.8748 32.0735 33.8035 32.3478C33.6844 32.3821 33.5654 32.4164 33.4293 32.4507C32.9191 32.6049 32.3749 32.7592 32.2899 32.8449C32.0178 33.1878 30.5043 37.1821 29.5009 39.9935C29.654 39.9764 29.807 39.9421 29.9431 39.9421L32.511 33.5821C32.511 33.5821 35.1299 32.2964 37.0857 32.2964C40.6229 32.2449 45.8098 27.9249 43.463 20.1592ZM20.1985 23.2449C20.5897 22.5078 20.2495 22.0107 19.9264 21.7192L19.8074 21.5992C19.1441 21.2564 14.9606 19.6792 10.8281 18.2221C14.4504 20.6392 18.4809 23.0049 19.1441 23.3478C19.6373 23.5878 19.9774 23.6392 20.1985 23.2449Z" fill="white"></path></g><defs><clipPath id="clip0"><rect width="182" height="72" fill="white" transform="translate(0.675781)"></rect></clipPath></defs></svg>