<svg xmlns="http://www.w3.org/2000/svg" width="213" height="48" viewBox="0 0 213 48" fill="none"><path d="M19.1074 16.9871C22.7231 18.2067 25.1923 19.5134 27.3969 21.0815C30.3071 17.684 30.5716 13.3283 30.2189 10.2793C27.7497 13.2412 23.9577 15.5062 19.1074 16.9871Z" fill="white"></path><path d="M1.38106 48C3.93846 44.5154 7.28954 43.7314 13.1098 42.3376C15.4027 41.8149 17.9601 41.2051 21.0466 40.2468C28.2779 38.1561 30.1298 34.1488 30.5707 31.8838C31.188 29.0091 30.1298 25.873 27.837 24.0436C22.9867 20.0363 18.1365 18.4682 10.9934 16.9873L9.4942 16.6388L11.0816 16.4646C19.812 15.4192 25.8969 12.6316 29.1598 8.18875C31.629 4.8784 31.8053 1.48094 31.7172 0C29.7771 2.96189 25.9851 3.83303 19.9002 5.31397C17.431 5.92378 14.5208 6.53358 11.2579 7.49183C4.02665 9.58258 2.17473 13.5898 1.7338 15.8548C1.1165 18.7296 2.17473 21.8657 4.46758 23.6951C9.31783 27.7024 14.1681 29.2704 21.3112 30.7514L22.8103 31.0998L21.223 31.274C16.8137 31.7967 12.4925 32.755 9.22964 33.8875C5.08488 35.3684 2.43929 37.1107 1.38106 39.1143C-0.0299258 41.9891 1.02831 46.4319 1.38106 48Z" fill="white"></path><path d="M49.8848 29.7059L51.5603 26.2214C53.2358 27.441 55.2641 28.4863 58.4388 28.4863C60.2026 28.4863 62.319 27.7023 62.319 26.0471C62.319 24.4791 60.4671 24.0435 58.6152 23.6079C54.735 22.7368 50.6784 21.4301 50.6784 17.0744C50.6784 13.0671 54.4705 11.0635 58.4388 11.0635C61.6136 11.0635 63.9946 11.9346 66.1111 13.2413L64.4355 16.7259C62.76 15.6805 60.5553 15.0707 58.4388 15.0707C57.3806 15.0707 55.2641 15.5063 55.2641 17.0744C55.2641 18.3811 56.7633 18.9038 58.8798 19.3393C62.5836 20.2105 67.0811 21.6043 67.0811 26.0471C67.0811 30.49 62.6718 32.4936 58.527 32.4936C53.4122 32.4936 51.0312 30.6642 49.8848 29.7059Z" fill="white"></path><path d="M69.8145 25.7859V16.2033H74.1356V25.1761C74.1356 27.4411 75.1056 28.3993 77.1339 28.3993C79.4268 28.3993 80.485 26.4828 80.485 24.305V16.1162H84.8061V32.0581H80.7496V29.7932C79.7795 31.3612 77.5749 32.3195 75.7229 32.3195C71.2254 32.4937 69.8145 29.8803 69.8145 25.7859Z" fill="white"></path><path d="M88.1582 16.2029H92.303V18.1195C93.6258 16.5514 95.5659 15.8545 97.506 15.8545C102.003 15.8545 104.825 19.5133 104.825 24.1304C104.825 28.7474 101.915 32.4933 97.4178 32.4933C95.5659 32.4933 93.7139 31.7964 92.5675 30.3155V36.7619H88.2464L88.1582 16.2029ZM100.24 24.2175C100.24 21.6912 98.5642 19.8618 96.2714 19.8618C94.0667 19.8618 92.3912 21.6912 92.3912 24.2175C92.3912 26.7438 93.9785 28.5732 96.2714 28.5732C98.6524 28.5732 100.24 26.7438 100.24 24.2175Z" fill="white"></path><path d="M107.029 24.2182C107.029 19.6012 110.645 15.9424 115.407 15.9424C119.816 15.9424 123.256 19.6012 123.256 24.1311C123.256 24.9152 123.167 25.6992 123.167 25.6992H111.439C111.968 27.877 113.82 28.9224 115.936 28.9224C117.523 28.9224 119.111 28.4868 120.257 27.7028L121.845 30.7518C119.993 31.9714 117.964 32.4941 115.848 32.4941C111.174 32.4941 107.029 29.4451 107.029 24.2182ZM119.199 22.8244C118.846 20.8208 117.259 19.5141 115.319 19.5141C113.467 19.5141 111.791 20.8208 111.439 22.8244H119.199Z" fill="white"></path><path d="M126.078 16.2029H130.311V19.252C130.752 17.9452 132.428 15.8545 135.955 15.8545V20.4716C132.251 20.4716 130.399 22.1267 130.399 25.9598V32.0578H126.078V16.2029Z" fill="white"></path><path d="M138.777 11.499H154.475V15.3321H143.363V19.5135H152.799V23.3466H143.275V32.1451H138.777V11.499Z" fill="white"></path><path d="M155.355 24.2182C155.355 19.6012 158.177 15.9424 162.675 15.9424C164.527 15.9424 166.555 16.6393 167.702 18.2074V16.2908H171.935V32.2328H167.702V30.3162C166.555 31.8843 164.527 32.5812 162.675 32.5812C158.177 32.4941 155.355 28.8353 155.355 24.2182ZM167.613 24.2182C167.613 21.6919 166.026 19.8625 163.733 19.8625C161.44 19.8625 159.765 21.6919 159.765 24.2182C159.765 26.7446 161.44 28.574 163.733 28.574C166.026 28.574 167.613 26.7446 167.613 24.2182Z" fill="white"></path><path d="M175.285 16.2029H179.518V19.252C179.959 17.9452 181.635 15.8545 185.162 15.8545V20.4716C181.458 20.4716 179.606 22.1267 179.606 25.9598V32.0578H175.285V16.2029Z" fill="white"></path><path d="M187.543 16.2037H191.776V18.3816C192.746 16.9878 194.598 15.9424 196.538 15.9424C199.095 15.9424 200.683 16.9878 201.476 18.8172C202.623 16.9006 204.828 15.9424 206.679 15.9424C211.265 15.9424 212.676 19.0785 212.676 23.0858V32.1457H208.355V23.6084C208.355 21.5177 207.826 19.9496 205.533 19.9496C203.417 19.9496 202.27 21.6048 202.27 23.7827V32.2328H197.949V23.6084C197.949 21.5177 197.508 19.9496 195.127 19.9496C192.922 19.9496 191.864 21.779 191.864 23.8698V32.1457H187.543V16.2037Z" fill="white"></path></svg>