<svg xmlns="http://www.w3.org/2000/svg" width="179" height="42" viewBox="0 0 179 42" fill="none"><g clip-path="url(#clip0)"><path d="M48.38 21.4268C48.38 14.6228 52.0726 11.2484 59.3169 11.2484C62.2766 11.2484 64.0242 11.7739 65.5187 12.4377L64.2502 15.8397C62.3611 15.3419 61.5724 15.1483 59.3732 15.1201C55.7652 15.0653 53.257 17.0562 53.257 21.1497C53.257 25.2436 55.9067 27.4287 59.9375 27.4287C61.882 27.4287 63.0382 27.2627 64.5593 26.8755L65.5745 30.4158C63.6578 31.1072 61.9952 31.3562 59.4301 31.3562C52.1295 31.3562 48.38 27.8435 48.38 21.4268ZM78.994 23.5288C78.994 21.0949 78.3744 19.2417 75.7795 19.2417C73.2431 19.2417 72.539 21.0949 72.539 23.557C72.539 26.1564 73.3282 27.7329 75.8364 27.7329C78.3744 27.7329 78.9934 26.101 78.9934 23.5288H78.994ZM67.8024 23.6671C67.8024 18.6604 70.9881 15.5903 75.8646 15.5903C81.333 15.5903 83.7864 18.6056 83.7864 23.5293C83.7864 28.6733 80.3459 31.412 75.6104 31.412C70.5371 31.412 67.8024 28.3967 67.8024 23.6666V23.6671ZM85.3101 15.978H90.3557L92.949 24.165L93.7382 27.1797L94.6125 24.165L97.4866 15.978H102.421L96.4442 31.0796H90.8625L85.3101 15.978ZM113.216 27.235V24.8569L110.906 24.9128C109.524 24.9399 108.51 25.3824 108.51 26.4888C108.51 27.3739 109.383 27.7611 110.229 27.7611C111.131 27.7611 112.202 27.5116 113.216 27.2356L113.216 27.235ZM103.943 26.7649C103.943 22.948 107.495 22.1735 110.54 22.1735H113.216V21.2326C113.216 19.9055 112.343 19.5183 110.427 19.5183C108.904 19.5183 107.269 19.8502 105.831 20.1816L104.902 16.8349C106.65 16.1716 108.679 15.6185 111.131 15.6185C115.895 15.6185 117.812 16.9461 117.812 20.3481V27.0691C117.812 27.567 118.319 27.6776 119.193 27.7052L119.024 31.1902C118.658 31.2179 118.29 31.2179 117.924 31.2179C116.064 31.2179 114.091 30.9136 113.668 29.6137C112.541 30.4716 110.934 31.3285 109.242 31.3285C105.86 31.3285 103.943 29.7796 103.943 26.7649ZM122.69 10.2245H127.397V31.0801H122.69V10.2245ZM140.449 21.9799C140.505 20.1545 139.688 18.8822 138.166 18.8822C136.559 18.8822 135.517 19.9885 135.431 21.9799H140.449ZM130.61 23.7496C130.61 17.5822 133.909 15.6185 138.56 15.6185C143.409 15.6185 145.269 18.7162 145.269 23.2799V24.9394H135.291C135.263 27.318 137.179 27.7606 139.63 27.7606C140.674 27.7606 142.422 27.4287 144.029 27.1521L144.734 30.6642C143.014 31.1626 140.816 31.412 138.955 31.412C133.882 31.412 130.61 29.7796 130.61 23.7496ZM148.484 15.978H153.192V17.4992C154.122 16.8078 156.152 15.5903 158.21 15.5903C163.03 15.5903 163.368 18.1902 163.368 21.6204V31.0801H158.688V22.0076C158.688 19.9332 158.21 19.5736 156.63 19.5736C155.221 19.5736 153.953 20.0162 153.192 20.3757V31.0796H148.484V15.978ZM167.991 26.3776V19.38H165.737V15.978H167.991V12.8798H172.671V15.978H177.435V19.38H172.671V26.35C172.671 27.4563 173.094 27.5393 174.363 27.5393C175.405 27.5393 177.689 27.235 177.689 27.235L178.14 30.8583C177.04 31.1626 175.547 31.3838 174.419 31.3838C171.459 31.3838 167.991 31.5221 167.991 26.3776ZM21.5422 9.70927V-0.00195312C9.81825 -0.00195312 0.324219 9.31437 0.324219 20.8178C0.324219 32.3217 9.81877 41.6385 21.5422 41.6385V31.9273C15.2846 31.9273 10.2212 26.9585 10.2212 20.8178C10.2212 14.6781 15.2846 9.70927 21.5422 9.70927Z" fill="white"></path><path d="M32.9055 9.70927C32.2557 9.70927 31.6122 9.58368 31.0118 9.33967C30.4114 9.09566 29.866 8.73799 29.4065 8.28711C28.9469 7.83622 28.5824 7.30093 28.3338 6.7118C28.085 6.12273 27.957 5.49129 27.957 4.85365C27.957 4.21601 28.085 3.5846 28.3338 2.9955C28.5824 2.40639 28.9469 1.87111 29.4065 1.42022C29.866 0.969336 30.4114 0.611675 31.0118 0.367658C31.6122 0.123641 32.2557 -0.00195314 32.9055 -0.00195312C34.218 -0.0019531 35.4767 0.509619 36.4047 1.42022C37.3327 2.33083 37.854 3.56587 37.854 4.85365C37.854 6.14142 37.3327 7.37648 36.4047 8.28711C35.4767 9.19769 34.218 9.70927 32.9055 9.70927Z" fill="white"></path><path d="M32.8235 41.637C31.5111 41.637 30.2524 41.1254 29.3244 40.2148C28.3964 39.3042 27.875 38.0692 27.875 36.7814C27.875 35.4936 28.3964 34.2586 29.3244 33.3479C30.2524 32.4374 31.5111 31.9258 32.8235 31.9258C34.136 31.9258 35.3946 32.4374 36.3226 33.3479C37.2506 34.2586 37.772 35.4936 37.772 36.7814C37.772 38.0692 37.2506 39.3042 36.3226 40.2148C35.3946 41.1254 34.136 41.637 32.8235 41.637Z" fill="white"></path><path d="M32.8646 20.818C32.8646 26.9587 27.8012 31.9275 21.543 31.9275V9.70898C27.8006 9.70898 32.8646 14.6773 32.8646 20.8175" fill="white"></path></g><defs><clipPath id="clip0"><rect width="178" height="42" fill="white" transform="translate(0.324219)"></rect></clipPath></defs></svg>