<svg xmlns="http://www.w3.org/2000/svg" width="17" height="16" viewBox="0 0 17 16" fill="none"><path d="M0.827148 8C0.827148 12.2812 4.2959 15.75 8.57715 15.75C12.8584 15.75 16.3271 12.2812 16.3271 8C16.3271 3.71875 12.8584 0.25 8.57715 0.25C4.2959 0.25 0.827148 3.71875 0.827148 8ZM14.8271 8C14.8271 11.4688 12.0146 14.25 8.57715 14.25C5.1084 14.25 2.32715 11.4688 2.32715 8C2.32715 4.5625 5.1084 1.75 8.57715 1.75C12.0146 1.75 14.8271 4.5625 14.8271 8ZM8.88965 3.96875C8.76465 3.8125 8.51465 3.8125 8.3584 3.96875L7.76465 4.5625C7.6084 4.71875 7.6084 4.96875 7.76465 5.09375L9.95215 7.1875H4.95215C4.7334 7.1875 4.57715 7.375 4.57715 7.5625V8.4375C4.57715 8.65625 4.7334 8.8125 4.95215 8.8125H9.95215L7.76465 10.9375C7.6084 11.0625 7.6084 11.3125 7.76465 11.4688L8.3584 12.0625C8.51465 12.2188 8.76465 12.2188 8.88965 12.0625L12.7021 8.28125C12.8584 8.125 12.8584 7.90625 12.7021 7.75L8.88965 3.96875Z" fill="white"></path></svg>