<svg width="16" height="16" viewBox="0 0 16 16" fill="none" xmlns="http://www.w3.org/2000/svg">
<path d="M8.25 3.25C6.59375 3.25 5.25 4.59375 5.25 6.25C5.25 7.90625 6.59375 9.25 8.25 9.25C9.90625 9.25 11.25 7.90625 11.25 6.25C11.25 4.59375 9.90625 3.25 8.25 3.25ZM8.25 7.75C7.40625 7.75 6.75 7.09375 6.75 6.25C6.75 5.4375 7.40625 4.75 8.25 4.75C9.0625 4.75 9.75 5.4375 9.75 6.25C9.75 7.09375 9.0625 7.75 8.25 7.75ZM8.25 0.25C3.96875 0.25 0.5 3.71875 0.5 8C0.5 12.2812 3.96875 15.75 8.25 15.75C12.5312 15.75 16 12.2812 16 8C16 3.71875 12.5312 0.25 8.25 0.25ZM8.25 14.25C6.6875 14.25 5.25 13.6875 4.15625 12.75C4.625 12.0312 5.4375 11.5312 6.34375 11.5312C7 11.7188 7.625 11.8125 8.25 11.8125C8.84375 11.8125 9.46875 11.7188 10.125 11.5312C11.0312 11.5625 11.8438 12.0312 12.3125 12.75C11.2188 13.6875 9.78125 14.25 8.25 14.25ZM13.3125 11.625C12.5625 10.6562 11.375 10 10.0312 10C9.71875 10 9.21875 10.3125 8.25 10.3125C7.25 10.3125 6.75 10 6.4375 10C5.09375 10 3.90625 10.6562 3.15625 11.625C2.40625 10.625 2 9.375 2 8C2 4.5625 4.78125 1.75 8.25 1.75C11.6875 1.75 14.5 4.5625 14.5 8C14.5 9.375 14.0625 10.625 13.3125 11.625Z" fill="white"/>
</svg>
